<mxfile host="65bd71144e" modified="2021-01-30T17:53:44.324Z" agent="5.0 (Windows NT 10.0; Win64; x64) AppleWebKit/537.36 (KHTML, like Gecko) Code/1.52.1 Chrome/83.0.4103.122 Electron/9.3.5 Safari/537.36" version="13.10.0" etag="9MwEK-6nnj_uOFqxjNgA" type="embed">
    <diagram id="hTql7uLvHU7AhrSEYBGp" name="Page-1">
        <mxGraphModel dx="493" dy="722" grid="1" gridSize="10" guides="1" tooltips="1" connect="1" arrows="1" fold="1" page="1" pageScale="1" pageWidth="827" pageHeight="1169" math="0" shadow="0">
            <root>
                <mxCell id="0"/>
                <mxCell id="1" parent="0"/>
                <mxCell id="2" value="Note&#10;(minNote: string (&quot;C/4&quot;),&#10;maxNote:string,&#10;accidentalSetting:string)&#10;" style="swimlane;fontStyle=1;align=center;verticalAlign=top;childLayout=stackLayout;horizontal=1;startSize=100;horizontalStack=0;resizeParent=1;resizeParentMax=0;resizeLast=0;collapsible=1;marginBottom=0;" vertex="1" parent="1">
                    <mxGeometry x="10" y="60" width="200" height="310" as="geometry">
                        <mxRectangle x="10" y="60" width="60" height="26" as="alternateBounds"/>
                    </mxGeometry>
                </mxCell>
                <mxCell id="3" value="+note:stringÂ  (&quot;C/4&quot;)&#10;+noteWithoutOctave:string(&quot;C&quot;)&#10;+octave:int&#10;+clef:string&#10;+accidental:string (&quot;#&quot;,&quot;b&quot;,&quot;random&quot;)&#10;+hasAccidental:bool&#10;&#10;+minNote&#10;+maxNote&#10;+minOctave&#10;+maxOctave&#10;&#10;&#10;" style="text;strokeColor=none;fillColor=none;align=left;verticalAlign=top;spacingLeft=4;spacingRight=4;overflow=hidden;rotatable=0;points=[[0,0.5],[1,0.5]];portConstraint=eastwest;" vertex="1" parent="2">
                    <mxGeometry y="100" width="200" height="170" as="geometry"/>
                </mxCell>
                <mxCell id="4" value="" style="line;strokeWidth=1;fillColor=none;align=left;verticalAlign=middle;spacingTop=-1;spacingLeft=3;spacingRight=3;rotatable=0;labelPosition=right;points=[];portConstraint=eastwest;" vertex="1" parent="2">
                    <mxGeometry y="270" width="200" height="8" as="geometry"/>
                </mxCell>
                <mxCell id="5" value="+ setNoteTo(&quot;note&quot;): void" style="text;strokeColor=none;fillColor=none;align=left;verticalAlign=top;spacingLeft=4;spacingRight=4;overflow=hidden;rotatable=0;points=[[0,0.5],[1,0.5]];portConstraint=eastwest;" vertex="1" parent="2">
                    <mxGeometry y="278" width="200" height="32" as="geometry"/>
                </mxCell>
                <mxCell id="7" value="KeySignature&#10;(keySignature:string)&#10;(&quot;minor&quot;,&quot;major&quot;,&#10;&quot;random&quot;,&quot;D&quot;)" style="swimlane;fontStyle=1;align=center;verticalAlign=top;childLayout=stackLayout;horizontal=1;startSize=70;horizontalStack=0;resizeParent=1;resizeParentMax=0;resizeLast=0;collapsible=1;marginBottom=0;" vertex="1" parent="1">
                    <mxGeometry x="240" y="110" width="330" height="340" as="geometry"/>
                </mxCell>
                <mxCell id="8" value="+ keySignature:string&#10;+ dict_C:{dict}&#10;+ keysignatures:[string]&#10;+ majorkeysignatures:[string]&#10;+ minorkeySignatures:[string]&#10;+ equivalentMajorKey:string&#10;" style="text;strokeColor=none;fillColor=none;align=left;verticalAlign=top;spacingLeft=4;spacingRight=4;overflow=hidden;rotatable=0;points=[[0,0.5],[1,0.5]];portConstraint=eastwest;" vertex="1" parent="7">
                    <mxGeometry y="70" width="330" height="160" as="geometry"/>
                </mxCell>
                <mxCell id="9" value="" style="line;strokeWidth=1;fillColor=none;align=left;verticalAlign=middle;spacingTop=-1;spacingLeft=3;spacingRight=3;rotatable=0;labelPosition=right;points=[];portConstraint=eastwest;" vertex="1" parent="7">
                    <mxGeometry y="230" width="330" height="8" as="geometry"/>
                </mxCell>
                <mxCell id="10" value="+ generateKeySignature(&quot;string&quot;):string&#10;+ noteInKeySignature(note:note,keysignature:string): note&#10;+ getEquivalentMajorKeySignature(string): string&#10;+ getChangedNotes(&quot;string&quot;):{dict}&#10;&#10;" style="text;strokeColor=none;fillColor=none;align=left;verticalAlign=top;spacingLeft=4;spacingRight=4;overflow=hidden;rotatable=0;points=[[0,0.5],[1,0.5]];portConstraint=eastwest;" vertex="1" parent="7">
                    <mxGeometry y="238" width="330" height="102" as="geometry"/>
                </mxCell>
            </root>
        </mxGraphModel>
    </diagram>
</mxfile>